<svg data-v-fde0c5aa="" xmlns="http://www.w3.org/2000/svg" viewBox="0 0 300 300" class="iconLeftSlogan"><!----><defs data-v-fde0c5aa=""><!----></defs><rect data-v-fde0c5aa="" fill="transparent" x="0" y="0" width="300px" height="300px" class="logo-background-square"></rect><defs data-v-fde0c5aa=""><!----></defs><g data-v-fde0c5aa="" id="ffb0d48c-af6a-43b3-a4d8-902b279ac0e4" fill="#000000" transform="matrix(1.635551221234918,0,0,1.635551221234918,89.08489538247886,131.13531245109698)"><path d="M4.77 10.50L4.77 2.49L7.27 2.49L7.27 0.50L0.28 0.50L0.28 2.49L2.77 2.49L2.77 10.50L4.77 10.50L4.77 10.50ZM16.03 10.50L16.03 10.50L13.71 6.37C16.65 5.52 16.30 0.49 12.73 0.49L8.78 0.49L8.78 10.50L10.78 10.50L10.78 6.68L11.75 6.68L13.76 10.50ZM10.78 2.49L12.54 2.49C13.90 2.49 13.90 4.73 12.54 4.73L10.78 4.73L10.78 4.73ZM16.46 10.50L18.73 10.50L19.12 9.42L22.44 9.42L22.85 10.50L25.10 10.50L20.89 0.13L20.68 0.13L16.46 10.50L16.46 10.50ZM19.85 7.55L20.79 4.94L21.70 7.55L19.85 7.55L19.85 7.55ZM32.55 2.81L32.55 2.81L32.79 0.76C32.19 0.49 31.51 0.36 30.81 0.36C24.04 0.36 24.02 10.53 30.81 10.53C31.51 10.53 32.40 10.36 33.01 10.11L32.75 8.04C32.37 8.23 31.68 8.48 30.81 8.48C26.85 8.48 26.85 2.38 30.81 2.38C31.68 2.38 32.17 2.62 32.55 2.81ZM34.61 10.50L36.61 10.50C36.61 9.21 36.61 7.87 36.61 6.58L39.27 10.50L41.75 10.50L38.22 5.43L41.47 0.49L39.13 0.49L36.61 4.48C36.61 3.15 36.61 1.82 36.61 0.49L34.61 0.49L34.61 10.50L34.61 10.50ZM48.24 10.50L48.24 10.50L48.24 8.50L45.07 8.50L45.07 6.50L47.70 6.50L47.70 4.49L45.07 4.49L45.07 2.49L48.08 2.49L48.08 0.49L43.06 0.49L43.06 10.50L48.24 10.50ZM49.08 10.50L49.08 10.50L51.52 10.50L53.45 7.07L55.37 10.50L57.74 10.50L54.59 5.17L57.32 0.48L54.95 0.48L53.45 3.26L51.94 0.48L49.52 0.48L52.23 5.17L49.08 10.50ZM60.96 10.50L60.96 6.68L62.89 6.68C66.77 6.68 66.78 0.50 62.89 0.50L58.95 0.50L58.95 10.50L60.96 10.50L60.96 10.50ZM60.96 4.73L60.96 2.49L62.72 2.49C64.06 2.49 64.06 4.73 62.72 4.73L60.96 4.73L60.96 4.73ZM72.58 10.50L72.58 10.50L72.58 8.50L69.40 8.50L69.40 6.50L72.03 6.50L72.03 4.49L69.40 4.49L69.40 2.49L72.41 2.49L72.41 0.49L67.40 0.49L67.40 10.50L72.58 10.50ZM76.45 5.05L76.45 5.05L81.52 10.71L82.05 10.71L82.05 0.50L80.04 0.50L80.04 6.16L74.98 0.28L74.45 0.28L74.45 10.50L76.45 10.50L76.45 5.05ZM83.85 9.86C85.20 10.56 86.45 10.63 87.01 10.58C88.89 10.49 90.03 9.21 90.03 7.55C90.03 5.95 88.69 5.05 87.14 4.48C86.56 4.28 86.07 4.03 86.02 3.47C85.97 2.91 86.30 2.39 87.01 2.35C87.32 2.34 87.95 2.32 89.05 2.77L89.31 0.84C88.02 0.39 87.33 0.39 86.81 0.42C85.15 0.50 83.99 1.79 83.99 3.47C83.99 5.15 85.39 5.95 86.95 6.52C87.51 6.72 87.95 6.97 87.99 7.55C88.05 8.09 87.54 8.51 86.95 8.55C86.49 8.60 85.25 8.57 84.10 7.76L83.85 9.86L83.85 9.86ZM96.89 10.50L96.89 10.50L96.89 8.50L93.72 8.50L93.72 6.50L96.35 6.50L96.35 4.49L93.72 4.49L93.72 2.49L96.73 2.49L96.73 0.49L91.71 0.49L91.71 10.50L96.89 10.50ZM98.31 9.86C99.67 10.56 100.91 10.63 101.47 10.58C103.35 10.49 104.50 9.21 104.50 7.55C104.50 5.95 103.15 5.05 101.60 4.48C101.02 4.28 100.53 4.03 100.48 3.47C100.44 2.91 100.76 2.39 101.47 2.35C101.78 2.34 102.41 2.32 103.52 2.77L103.77 0.84C102.48 0.39 101.79 0.39 101.28 0.42C99.61 0.50 98.45 1.79 98.45 3.47C98.45 5.15 99.85 5.95 101.42 6.52C101.98 6.72 102.41 6.97 102.45 7.55C102.51 8.09 102.00 8.51 101.42 8.55C100.95 8.60 99.71 8.57 98.56 7.76L98.31 9.86L98.31 9.86Z"></path></g><defs data-v-fde0c5aa=""><linearGradient data-v-fde0c5aa="" gradientTransform="rotate(25)" id="bba93f94-b350-4183-acb5-655b99de2e6f" x1="0%" y1="0%" x2="100%" y2="0%"><stop data-v-fde0c5aa="" offset="0%" stop-color="#0015D6" stop-opacity="1"></stop><stop data-v-fde0c5aa="" offset="100%" stop-color="#0989FB" stop-opacity="1"></stop></linearGradient></defs><g data-v-fde0c5aa="" id="dbbc7182-ca3f-49fd-b23b-2ff7758bf61a" stroke="none" fill="url(#bba93f94-b350-4183-acb5-655b99de2e6f)" transform="matrix(0.4350339253139806,0,0,0.4350339253139806,36.519728597488154,127.37823588367301)"><path d="M36.558 37.254c.282.152.6.246.942.246a1.985 1.985 0 001.798-1.14c.126-.261.202-.55.202-.86a2 2 0 00-4 0c0 .207.04.401.098.588.156.505.503.92.96 1.166zM58.702 73.64c-.126.261-.202.55-.202.86a2 2 0 004 0 2 2 0 00-1.328-1.876 1.998 1.998 0 00-.672-.124 1.983 1.983 0 00-1.798 1.14zM75 58.392l6.828-8.016a2 2 0 01-1.015-.81L75 56.392v2z"></path><path d="M35.598 36.088L31 40.087v2l5.558-4.833a1.99 1.99 0 01-.96-1.166zM62.187 73.434L69 65.435v-2l-7.828 9.189a2 2 0 011.015.81zM38.631 37.147L47 52.363v-2L39.298 36.36c-.152.317-.38.59-.667.787zM59.369 72.853L53 61.272v2l5.702 10.367c.152-.317.38-.589.667-.786z"></path><path d="M37.5 37.5c-.343 0-.66-.094-.942-.246L31 42.087V98h16V52.363l-8.369-15.216a1.985 1.985 0 01-1.131.353z"></path><path d="M31 40.087l4.598-3.999a1.969 1.969 0 01-.098-.588 2 2 0 014 0c0 .31-.076.599-.202.861L47 50.364V23H31v17.087zM62.5 74.5a2 2 0 01-4 0c0-.31.076-.599.202-.86L53 63.272V98h16V65.435l-6.813 7.999c.196.308.313.672.313 1.066z"></path><path d="M53 61.272l6.369 11.58A1.99 1.99 0 0160.5 72.5c.237 0 .461.049.672.124L69 63.435V6H53v55.272zM75 98h17V59.552l-8.165-9.572c-.355.32-.819.52-1.335.52-.237 0-.461-.048-.672-.124L75 58.392V98z"></path><path d="M92 57.552V35H75v21.392l5.813-6.825A1.986 1.986 0 0180.5 48.5a2 2 0 014 0c0 .079-.015.154-.023.231L92 57.552zM17.5 54.5a2 2 0 01-4 0c0-.463.164-.884.428-1.223L8 38.231V98h17V47.304l-7.598 6.607c.058.188.098.383.098.589z"></path><path d="M8 36.231l6.515 16.539c.292-.167.625-.27.985-.27.343 0 .66.094.942.246L25 45.304V6H8v30.231z"></path></g><defs data-v-fde0c5aa=""><!----></defs><g data-v-fde0c5aa="" id="de0c12ee-dc29-4bf7-9c84-a1bbdef8521a" fill="#000000" transform="matrix(0.5062432199799067,0,0,0.5062432199799067,89.31504026833107,157.80157725457977)"><path d="M1.75 4.65C1.75 4.03 2.11 3.08 4.21 3.08C5.91 3.08 6.69 3.82 6.80 4.75L7.88 4.75C7.80 3.36 6.68 2.10 4.21 2.10C1.89 2.10 0.73 3.15 0.73 4.66C0.73 7.84 7.07 6.69 7.07 8.96C7.07 10.05 6.09 10.60 4.52 10.60C2.91 10.60 1.61 10.05 1.54 8.71L0.45 8.71C0.59 10.37 1.71 11.59 4.45 11.59C6.73 11.59 8.12 10.64 8.12 8.92C8.12 5.68 1.75 6.80 1.75 4.65ZM20.08 11.59C22.12 11.59 23.46 9.98 23.46 7.98C23.46 5.98 22.12 4.37 20.08 4.37C18.91 4.37 18.09 4.84 17.57 5.60L17.57 4.48L16.52 4.48L16.52 14.25L17.57 14.25L17.57 10.35C18.09 11.10 18.91 11.59 20.08 11.59ZM19.94 5.32C21.49 5.32 22.41 6.54 22.41 7.98C22.41 9.42 21.49 10.64 19.94 10.64C18.38 10.64 17.51 9.42 17.51 7.98C17.51 6.54 18.38 5.32 19.94 5.32ZM34.96 10.64C33.54 10.64 32.63 9.65 32.48 8.40L38.35 8.40L38.35 7.98C38.35 5.98 37.02 4.37 34.87 4.37C32.73 4.37 31.40 5.98 31.40 7.98C31.40 9.98 32.80 11.59 34.94 11.59C36.61 11.59 37.65 10.72 38.14 9.46L36.99 9.46C36.61 10.16 35.94 10.64 34.96 10.64ZM34.87 5.32C36.22 5.32 37.06 6.23 37.25 7.42L32.49 7.42C32.69 6.23 33.53 5.32 34.87 5.32ZM46.63 4.48L46.63 11.48L47.68 11.48L47.68 7.45C47.68 6.19 48.64 5.32 49.80 5.32C50.95 5.32 51.76 6.16 51.76 7.43L51.76 11.48L52.81 11.48L52.81 7.41C52.81 5.42 51.45 4.37 50.01 4.37C48.87 4.37 48.19 4.90 47.68 5.57L47.68 4.48ZM64.51 4.37C62.47 4.37 61.12 5.98 61.12 7.98C61.12 9.98 62.47 11.59 64.51 11.59C65.67 11.59 66.50 11.12 67.02 10.36L67.02 11.48L68.07 11.48L68.07 1.68L67.02 1.68L67.02 5.61C66.50 4.86 65.67 4.37 64.51 4.37ZM64.65 10.64C63.10 10.64 62.17 9.42 62.17 7.98C62.17 6.54 63.10 5.32 64.65 5.32C66.21 5.32 67.07 6.54 67.07 7.98C67.07 9.42 66.21 10.64 64.65 10.64ZM87.71 4.65C87.71 4.03 88.07 3.08 90.17 3.08C91.87 3.08 92.65 3.82 92.76 4.75L93.84 4.75C93.76 3.36 92.64 2.10 90.17 2.10C87.85 2.10 86.69 3.15 86.69 4.66C86.69 7.84 93.03 6.69 93.03 8.96C93.03 10.05 92.05 10.60 90.48 10.60C88.87 10.60 87.57 10.05 87.50 8.71L86.41 8.71C86.55 10.37 87.67 11.59 90.41 11.59C92.69 11.59 94.08 10.64 94.08 8.92C94.08 5.68 87.71 6.80 87.71 4.65ZM108.21 7.29C108.21 6.05 109.06 5.32 110.10 5.32C111.08 5.32 111.83 6.10 111.83 7.28L111.83 11.48L112.88 11.48L112.88 7.25C112.88 5.49 111.64 4.37 110.29 4.37C108.91 4.37 108.16 5.31 107.88 5.78C107.44 4.89 106.58 4.37 105.66 4.37C104.52 4.37 103.85 4.98 103.53 5.54L103.53 4.48L102.48 4.48L102.48 11.48L103.53 11.48L103.53 7.29C103.53 6.05 104.38 5.32 105.42 5.32C106.40 5.32 107.16 6.10 107.16 7.28L107.16 11.48L108.21 11.48ZM124.59 4.37C122.54 4.37 121.20 5.98 121.20 7.98C121.20 9.98 122.54 11.59 124.59 11.59C125.75 11.59 126.57 11.12 127.09 10.36L127.09 11.48L128.14 11.48L128.14 4.48L127.09 4.48L127.09 5.61C126.57 4.86 125.75 4.37 124.59 4.37ZM124.73 10.64C123.17 10.64 122.25 9.42 122.25 7.98C122.25 6.54 123.17 5.32 124.73 5.32C126.28 5.32 127.15 6.54 127.15 7.98C127.15 9.42 126.28 10.64 124.73 10.64ZM140.59 4.37C138.85 4.37 138.15 5.73 138.01 6.20L138.01 4.48L136.96 4.48L136.96 11.48L138.01 11.48L138.01 8.40C138.01 6.86 138.96 5.42 140.53 5.42L140.66 5.42L140.66 4.37ZM150.60 11.48L150.60 5.40L152.21 5.40L152.21 4.48L150.60 4.48L150.60 1.97L149.55 1.97L149.55 4.48L148.12 4.48L148.12 5.40L149.55 5.40L149.55 11.48ZM163.34 10.64C161.92 10.64 161.01 9.65 160.86 8.40L166.73 8.40L166.73 7.98C166.73 5.98 165.40 4.37 163.25 4.37C161.11 4.37 159.78 5.98 159.78 7.98C159.78 9.98 161.18 11.59 163.32 11.59C164.99 11.59 166.03 10.72 166.52 9.46L165.37 9.46C164.99 10.16 164.32 10.64 163.34 10.64ZM163.25 5.32C164.60 5.32 165.44 6.23 165.63 7.42L160.87 7.42C161.07 6.23 161.91 5.32 163.25 5.32ZM178.64 4.37C176.90 4.37 176.20 5.73 176.06 6.20L176.06 4.48L175.01 4.48L175.01 11.48L176.06 11.48L176.06 8.40C176.06 6.86 177.02 5.42 178.58 5.42L178.71 5.42L178.71 4.37ZM185.46 13.34L186.41 13.34L187.64 10.36L186.27 10.36ZM213.44 2.21L213.44 10.01L207.72 2.21L206.50 2.21L206.50 11.48L207.55 11.48L207.55 3.65L213.28 11.48L214.49 11.48L214.49 2.21ZM226.45 4.37C224.31 4.37 222.98 5.98 222.98 7.98C222.98 9.98 224.31 11.59 226.45 11.59C228.59 11.59 229.92 9.98 229.92 7.98C229.92 5.98 228.59 4.37 226.45 4.37ZM226.45 10.64C224.90 10.64 224.03 9.42 224.03 7.98C224.03 6.54 224.90 5.32 226.45 5.32C228.00 5.32 228.87 6.54 228.87 7.98C228.87 9.42 228.00 10.64 226.45 10.64ZM239.99 11.48L239.99 5.40L241.60 5.40L241.60 4.48L239.99 4.48L239.99 1.97L238.94 1.97L238.94 4.48L237.51 4.48L237.51 5.40L238.94 5.40L238.94 11.48ZM266.39 2.21L266.39 6.33L261.00 6.33L261.00 2.21L259.95 2.21L259.95 11.48L261.00 11.48L261.00 7.35L266.39 7.35L266.39 11.48L267.44 11.48L267.44 2.21ZM279.31 4.37C277.27 4.37 275.93 5.98 275.93 7.98C275.93 9.98 277.27 11.59 279.31 11.59C280.48 11.59 281.30 11.12 281.82 10.36L281.82 11.48L282.87 11.48L282.87 4.48L281.82 4.48L281.82 5.61C281.30 4.86 280.48 4.37 279.31 4.37ZM279.45 10.64C277.90 10.64 276.98 9.42 276.98 7.98C276.98 6.54 277.90 5.32 279.45 5.32C281.01 5.32 281.88 6.54 281.88 7.98C281.88 9.42 281.01 10.64 279.45 10.64ZM295.32 4.37C293.58 4.37 292.88 5.73 292.74 6.20L292.74 4.48L291.69 4.48L291.69 11.48L292.74 11.48L292.74 8.40C292.74 6.86 293.69 5.42 295.26 5.42L295.39 5.42L295.39 4.37ZM306.29 4.37C304.25 4.37 302.90 5.98 302.90 7.98C302.90 9.98 304.25 11.59 306.29 11.59C307.45 11.59 308.28 11.12 308.80 10.36L308.80 11.48L309.85 11.48L309.85 1.68L308.80 1.68L308.80 5.61C308.28 4.86 307.45 4.37 306.29 4.37ZM306.43 10.64C304.88 10.64 303.95 9.42 303.95 7.98C303.95 6.54 304.88 5.32 306.43 5.32C307.99 5.32 308.85 6.54 308.85 7.98C308.85 9.42 307.99 10.64 306.43 10.64ZM321.79 10.64C320.38 10.64 319.47 9.65 319.31 8.40L325.18 8.40L325.18 7.98C325.18 5.98 323.85 4.37 321.71 4.37C319.56 4.37 318.23 5.98 318.23 7.98C318.23 9.98 319.63 11.59 321.78 11.59C323.44 11.59 324.48 10.72 324.97 9.46L323.82 9.46C323.44 10.16 322.77 10.64 321.79 10.64ZM321.71 5.32C323.05 5.32 323.89 6.23 324.09 7.42L319.33 7.42C319.52 6.23 320.36 5.32 321.71 5.32ZM337.09 4.37C335.36 4.37 334.66 5.73 334.52 6.20L334.52 4.48L333.47 4.48L333.47 11.48L334.52 11.48L334.52 8.40C334.52 6.86 335.47 5.42 337.04 5.42L337.16 5.42L337.16 4.37Z"></path></g></svg>